<svg id="svg8" version="1.1" viewBox="0 0 120.91458181 79.90504977257524" xmlns="http://www.w3.org/2000/svg" style="max-height: 500px" width="120.91458181" height="79.90504977257524">
  <defs id="defs2"/>
  
  <metadata id="metadata5">
    
      
        image/svg+xml
        
        
      
    
  </metadata>
  <g transform="translate(167.17131,11.467253)" id="layer1">
    <path id="path942" style="fill:#d6001c;fill-opacity:1;fill-rule:evenodd;stroke:none;stroke-width:1.46502376" d="m -167.17131,66.237615 h 16.52546 V 13.672559 l -16.52546,9.5124 z"/>
    <path id="path944" style="fill:#d6001c;fill-opacity:1;fill-rule:evenodd;stroke:none;stroke-width:1.46502376" d="m -97.289669,50.679061 c -5.508471,0 -10.108681,-4.610432 -10.108681,-10.143825 0,-5.716523 4.60021,-10.142362 10.108681,-10.142362 5.684302,0 10.284468,4.425839 10.284468,10.142362 0,5.533393 -4.600166,10.143825 -10.284468,10.143825 m 0,-37.251161 c -3.486751,0 -6.973501,0.736906 -10.284471,2.029057 0,-26.92421 0,-26.92421 0,-26.92421 -16.52545,9.7731767 -16.52545,9.7731767 -16.52545,9.7731767 0,42.2293123 0,42.2293123 0,42.2293123 0,14.937383 12.11574,27.108803 26.809921,27.108803 14.870016,0 26.985755,-12.17142 26.985755,-27.108803 0,-14.935917 -12.115739,-27.107336 -26.985755,-27.107336"/>
    <path id="path946" style="fill:#d6001c;fill-opacity:1;fill-rule:evenodd;stroke:none;stroke-width:1.46502376" d="m -148.1846,23.60542 c 0,-5.583206 4.52691,-10.108667 10.10868,-10.108667 5.58173,0 10.10864,4.525461 10.10864,10.108667 0,5.583206 -4.52691,10.108662 -10.10864,10.108662 -5.58177,0 -10.10868,-4.525456 -10.10868,-10.108662 z"/>
    <path id="path948" style="fill:#d6001c;fill-opacity:1;fill-rule:evenodd;stroke:none;stroke-width:1.46502376" d="m -65.557237,66.237615 h 16.701245 V 13.672559 l -16.701245,9.5124 z"/>
    <path id="path950" style="fill:#d6001c;fill-opacity:1;fill-rule:evenodd;stroke:none;stroke-width:1.46502376" d="m -67.315293,3.5638927 c 0,-5.5832057 4.570888,-10.1086623 10.196594,-10.1086623 5.625664,0 10.196552,4.5254566 10.196552,10.1086623 0,5.5832057 -4.570888,10.1086663 -10.196552,10.1086663 -5.625706,0 -10.196594,-4.5254606 -10.196594,-10.1086663 z"/>
    <path id="path952" style="fill:#d6001c;fill-opacity:1;fill-rule:evenodd;stroke:none;stroke-width:1.46502376" d="m 23.662692,42.725444 c -1.479651,0 -2.578405,-1.287753 -2.578405,-2.760104 0,-1.47235 1.098754,-2.760103 2.578405,-2.760103 1.465033,0 2.754277,1.287753 2.754277,2.760103 0,1.472351 -1.289244,2.760104 -2.754277,2.760104 m 5.88941,2.758642 c 0,-15.637666 0,-15.637666 0,-15.637666 -3.135133,1.840071 -3.135133,1.840071 -3.135133,1.840071 0,3.678675 0,3.678675 0,3.678675 -0.732516,-0.735444 -2.02176,-1.103164 -3.310963,-1.103164 -2.944684,0 -5.332682,2.390921 -5.332682,5.703338 0,3.495548 2.387998,5.703339 5.332682,5.703339 1.289203,0 2.578447,-0.367733 3.310963,-1.104631 0,0.920038 0,0.920038 0,0.920038 z"/>
    <path id="path954" style="fill:#d6001c;fill-opacity:1;fill-rule:evenodd;stroke:none;stroke-width:1.46502376" d="m 94.247572,52.33014 v 13.907475 h 3.164452 V 50.415356 Z"/>
    <path id="path956" style="fill:#d6001c;fill-opacity:1;fill-rule:evenodd;stroke:none;stroke-width:1.46502376" d="m -25.488842,19.390545 c 0,-1.659871 0.922965,-2.76743 2.593106,-2.76743 0.556686,0 0.922965,0.184593 1.289203,0.184593 0,-3.135149 0,-3.135149 0,-3.135149 -0.366279,0 -0.732517,0 -1.113414,0 -1.289202,0 -2.212167,0.553779 -2.959343,1.475278 0,-1.290685 0,-1.290685 0,-1.290685 -3.135175,0 -3.135175,0 -3.135175,0 0,11.066789 0,11.066789 0,11.066789 3.325623,0 3.325623,0 3.325623,0 z"/>
    <path id="path958" style="fill:#d6001c;fill-opacity:1;fill-rule:evenodd;stroke:none;stroke-width:1.46502376" d="m 38.3276,19.390545 c 0,-1.659871 0.922965,-2.76743 2.593106,-2.76743 0.556686,0 0.922965,0.184593 1.289203,0.184593 0,-3.135149 0,-3.135149 0,-3.135149 -0.366279,0 -0.732517,0 -1.113414,0 -1.289202,0 -2.212167,0.553779 -2.959343,1.475278 0,-1.290685 0,-1.290685 0,-1.290685 -3.135175,0 -3.135175,0 -3.135175,0 0,11.066789 0,11.066789 0,11.066789 3.325623,0 3.325623,0 3.325623,0 z"/>
    <path id="path960" style="fill:#d6001c;fill-opacity:1;fill-rule:evenodd;stroke:none;stroke-width:1.46502376" d="m -4.6415423,22.335246 c -1.3038621,0 -2.5931062,-0.369186 -3.7065198,-1.106093 -1.303862,2.579905 -1.303862,2.579905 -1.303862,2.579905 1.6700995,1.106092 3.8969682,1.290685 5.0103818,1.290685 3.1497922,0 5.01038178,-1.473812 5.01038178,-3.685997 0,-1.843002 -1.30386206,-2.949094 -3.70651978,-3.31828 -0.9376245,-0.18314 -0.9376245,-0.18314 -0.9376245,-0.18314 -1.1134136,-0.184593 -1.6700996,-0.369186 -1.6700996,-0.738372 0,-0.552313 0.556686,-0.921499 1.4943106,-0.921499 1.2892026,0 2.7835546,0.553779 3.51607122,0.921499 0.93758301,-2.579908 0.93758301,-2.579908 0.93758301,-2.579908 -1.49431053,-0.736906 -2.78351313,-0.921499 -4.45365423,-0.921499 -2.9740032,0 -4.8345928,1.290685 -4.8345928,3.686 0,1.842999 1.303862,2.949095 3.8969682,3.318281 0.9376246,0.183139 0.9376246,0.183139 0.9376246,0.183139 0.7325165,0 1.6701411,0.184593 1.6701411,0.738372 0,0.367733 -0.380814,0.736907 -1.8605896,0.736907"/>
    <path id="path962" style="fill:#d6001c;fill-opacity:1;fill-rule:evenodd;stroke:none;stroke-width:1.46502376" d="m 37.331379,38.664398 c -0.908305,-0.18314 -0.908305,-0.18314 -0.908305,-0.18314 -1.098755,-0.184593 -1.640823,-0.369186 -1.640823,-0.738372 0,-0.552313 0.542068,-0.921499 1.450374,-0.921499 1.289203,0 2.739576,0.553779 3.472093,0.921499 0.908306,-2.579904 0.908306,-2.579904 0.908306,-2.579904 -1.450374,-0.736911 -2.739577,-0.921504 -4.380399,-0.921504 -2.915407,0 -4.732018,1.29069 -4.732018,3.686001 0,1.843002 1.274543,2.949095 3.823712,3.318281 0.908306,0.183139 0.908306,0.183139 0.908306,0.183139 0.732517,0 1.640822,0.184593 1.640822,0.738372 0,0.367733 -0.351744,0.736906 -1.816652,0.736906 -1.464992,0 -2.739577,-0.369186 -3.647882,-1.106092 -1.274585,2.579909 -1.274585,2.579909 -1.274585,2.579909 1.465033,1.106092 3.823712,1.290685 4.922467,1.290685 3.105855,0 4.922508,-1.473817 4.922508,-3.686001 0,-1.842998 -1.274585,-2.949094 -3.647924,-3.31828"/>
    <path id="path964" style="fill:#d6001c;fill-opacity:1;fill-rule:evenodd;stroke:none;stroke-width:1.46502376" d="m 24.365931,23.993651 c 0.922965,0.736906 2.036379,1.106092 3.51603,1.106092 1.479693,0 2.783555,-0.369186 3.70652,-1.106092 0.922965,-0.922965 1.479692,-2.21365 1.479692,-3.873522 0,-6.271768 0,-6.271768 0,-6.271768 -3.149792,0 -3.149792,0 -3.149792,0 0,6.087175 0,6.087175 0,6.087175 0,1.475279 -0.747176,2.213651 -2.03642,2.213651 -0.922965,0 -2.036379,-0.369186 -2.036379,-2.213651 0,-6.087175 0,-6.087175 0,-6.087175 -3.149792,0 -3.149792,0 -3.149792,0 0,6.271768 0,6.271768 0,6.271768 0,1.659872 0.556728,2.950557 1.670141,3.873522"/>
    <path id="path966" style="fill:#d6001c;fill-opacity:1;fill-rule:evenodd;stroke:none;stroke-width:1.46502376" d="m 59.716968,18.836766 c 0,-1.659872 1.098754,-2.213651 2.182848,-2.213651 1.098796,0 1.831313,0.738373 1.831313,2.213651 0,6.087175 0,6.087175 0,6.087175 3.091196,0 3.091196,0 3.091196,0 0,-7.008674 0,-7.008674 0,-7.008674 0,-2.582837 -1.640823,-4.242708 -4.189992,-4.242708 -1.274543,0 -2.18289,0.369186 -2.915365,1.106092 0,-0.921499 0,-0.921499 0,-0.921499 -3.091238,0 -3.091238,0 -3.091238,0 0,11.066789 0,11.066789 0,11.066789 3.091238,0 3.091238,0 3.091238,0 z"/>
    <path id="path968" style="fill:#d6001c;fill-opacity:1;fill-rule:evenodd;stroke:none;stroke-width:1.46502376" d="m -17.431201,54.810427 c -1.303862,0 -2.226827,0.375041 -2.959344,1.123675 0,-0.93615 0,-0.93615 0,-0.93615 -3.149834,0 -3.149834,0 -3.149834,0 0,11.239663 0,11.239663 0,11.239663 3.325623,0 3.325623,0 3.325623,0 0,-6.1824 0,-6.1824 0,-6.1824 0,-1.686246 0.937625,-2.247347 2.036379,-2.247347 1.303862,0 1.860589,0.748626 1.860589,2.247347 0,6.1824 0,6.1824 0,6.1824 3.325582,0 3.325582,0 3.325582,0 0,-7.118551 0,-7.118551 0,-7.118551 0,-2.622396 -1.845931,-4.308637 -4.438995,-4.308637"/>
    <path id="path970" style="fill:#d6001c;fill-opacity:1;fill-rule:evenodd;stroke:none;stroke-width:1.46502376" d="m 22.725109,54.810427 c -1.274585,0 -2.358721,0.375041 -2.915407,1.123675 0,-0.93615 0,-0.93615 0,-0.93615 -3.091196,0 -3.091196,0 -3.091196,0 0,11.239663 0,11.239663 0,11.239663 3.091196,0 3.091196,0 3.091196,0 0,-6.1824 0,-6.1824 0,-6.1824 0,-1.686246 1.098754,-2.247347 2.00706,-2.247347 1.274585,0 2.007101,0.748626 2.007101,2.247347 0,6.1824 0,6.1824 0,6.1824 3.091196,0 3.091196,0 3.091196,0 0,-7.118551 0,-7.118551 0,-7.118551 0,-2.622396 -1.816611,-4.308637 -4.18995,-4.308637"/>
    <path id="path972" style="fill:#d6001c;fill-opacity:1;fill-rule:evenodd;stroke:none;stroke-width:1.46502376" d="m -28.814465,66.237615 h 3.340283 V 54.986232 h -3.340283 z"/>
    <path id="path974" style="fill:#d6001c;fill-opacity:1;fill-rule:evenodd;stroke:none;stroke-width:1.46502376" d="m -29.166043,51.909679 c 0,-1.116345 0.908306,-2.021731 2.021719,-2.021731 1.113414,0 2.02172,0.905386 2.02172,2.021731 0,1.11635 -0.908306,2.021736 -2.02172,2.021736 -1.113413,0 -2.021719,-0.905386 -2.021719,-2.021736 z"/>
    <path id="path976" style="fill:#d6001c;fill-opacity:1;fill-rule:evenodd;stroke:none;stroke-width:1.46502376" d="m 50.296827,66.237615 h 3.340282 V 54.986232 h -3.340282 z"/>
    <path id="path978" style="fill:#d6001c;fill-opacity:1;fill-rule:evenodd;stroke:none;stroke-width:1.46502376" d="m 49.945249,51.909679 c 0,-1.116345 0.908306,-2.021731 2.021719,-2.021731 1.113414,0 2.021719,0.905386 2.021719,2.021731 0,1.11635 -0.908305,2.021736 -2.021719,2.021736 -1.113413,0 -2.021719,-0.905386 -2.021719,-2.021736 z"/>
    <path id="path980" style="fill:#d6001c;fill-opacity:1;fill-rule:evenodd;stroke:none;stroke-width:1.46502376" d="m 14.872576,16.62165 c 1.465033,0 2.754236,1.290689 2.754236,2.764501 0,1.473816 -1.289203,2.764502 -2.754236,2.764502 -1.479692,0 -2.754235,-1.290686 -2.754235,-2.764502 0,-1.473812 1.274543,-2.764501 2.754235,-2.764501 m -0.556727,8.478093 c 1.289244,0 2.402657,-0.369186 3.135174,-1.106092 0,0.921499 0,0.921499 0,0.921499 3.310922,0 3.310922,0 3.310922,0 0,-11.057998 0,-11.057998 0,-11.057998 -3.310922,0 -3.310922,0 -3.310922,0 0,0.921499 0,0.921499 0,0.921499 -0.732517,-0.736906 -1.84593,-1.106092 -3.135174,-1.106092 -2.944684,0 -5.3326827,2.395311 -5.3326827,5.713592 0,3.501408 2.3879987,5.713592 5.3326827,5.713592"/>
    <path id="path982" style="fill:#d6001c;fill-opacity:1;fill-rule:evenodd;stroke:none;stroke-width:1.46502376" d="m 34.562484,63.418906 c -1.465033,0 -2.754236,-1.30973 -2.754236,-2.806985 0,-1.497254 1.289203,-2.806985 2.754236,-2.806985 1.479693,0 2.768895,1.309731 2.768895,2.806985 0,1.497255 -1.289202,2.806985 -2.768895,2.806985 m 2.578447,-7.48627 c -0.732517,-0.748625 -1.84593,-1.122209 -3.120515,-1.122209 -2.944684,0 -5.523131,2.433405 -5.523131,5.801494 0,3.555615 2.578447,5.801495 5.523131,5.801495 1.274585,0 2.387998,-0.375041 3.120515,-1.123671 0,0.93615 0,0.93615 0,0.93615 3.310963,0 3.310963,0 3.310963,0 0,-11.227943 0,-11.227943 0,-11.227943 -3.310963,0 -3.310963,0 -3.310963,0 z"/>
    <path id="path984" style="fill:#d6001c;fill-opacity:1;fill-rule:evenodd;stroke:none;stroke-width:1.46502376" d="m 74.411153,54.810427 c -1.098796,0 -2.18289,0.375041 -2.915407,1.123675 0,-0.93615 0,-0.93615 0,-0.93615 -2.915407,0 -2.915407,0 -2.915407,0 0,11.239663 0,11.239663 0,11.239663 3.091196,0 3.091196,0 3.091196,0 0,-6.1824 0,-6.1824 0,-6.1824 0,-1.686246 1.098796,-2.247347 2.007102,-2.247347 1.274543,0 1.816611,0.748626 1.816611,2.247347 0,6.1824 0,6.1824 0,6.1824 3.281644,0 3.281644,0 3.281644,0 0,-7.118551 0,-7.118551 0,-7.118551 0,-2.622396 -1.816611,-4.308637 -4.365739,-4.308637"/>
    <path id="path986" style="fill:#d6001c;fill-opacity:1;fill-rule:evenodd;stroke:none;stroke-width:1.46502376" d="m 86.336443,63.418906 c -1.494352,0 -2.798214,-1.30973 -2.798214,-2.806985 0,-1.497254 1.303862,-2.806985 2.798214,-2.806985 1.494311,0 2.622384,1.309731 2.622384,2.806985 0,1.497255 -1.128073,2.806985 -2.622384,2.806985 m 2.622384,-7.48627 c -0.747176,-0.748625 -2.051038,-1.122209 -3.179111,-1.122209 -3.164452,0 -5.596387,2.433405 -5.596387,5.801494 0,3.555615 2.431935,5.801495 5.596387,5.801495 1.128073,0 2.431935,-0.375041 3.179111,-1.123671 0,0.93615 0,0.93615 0,0.93615 3.3549,0 3.3549,0 3.3549,0 0,-11.227943 0,-11.227943 0,-11.227943 -3.3549,0 -3.3549,0 -3.3549,0 z"/>
    <path id="path988" style="fill:#d6001c;fill-opacity:1;fill-rule:evenodd;stroke:none;stroke-width:1.46502376" d="m 48.641387,22.150653 c -1.479693,0 -2.768895,-1.290686 -2.768895,-2.764502 0,-1.473812 1.289202,-2.764501 2.768895,-2.764501 1.464992,0 2.563787,1.290689 2.563787,2.764501 0,1.473816 -1.098795,2.764502 -2.563787,2.764502 m 2.563787,-7.372002 c -0.732516,-0.736906 -2.021761,-1.106092 -3.120515,-1.106092 -3.135132,0 -5.523131,2.395311 -5.523131,5.713592 0,3.501408 2.387999,5.713592 5.523131,5.713592 1.098754,0 2.387999,-0.369186 3.120515,-1.106092 0,0.921499 0,0.921499 0,0.921499 3.135133,0 3.135133,0 3.135133,0 0,-11.057998 0,-11.057998 0,-11.057998 -3.135133,0 -3.135133,0 -3.135133,0 z"/>
    <path id="path990" style="fill:#d6001c;fill-opacity:1;fill-rule:evenodd;stroke:none;stroke-width:1.46502376" d="m -9.7105205,37.192051 c 0.5420266,0 0.9229651,0.184593 1.2892026,0.184593 0,-3.135153 0,-3.135153 0,-3.135153 -0.366279,0 -0.747176,0 -1.1134136,0 -1.2892025,0 -2.2121675,0.553779 -2.7688955,1.475282 0,-1.290689 0,-1.290689 0,-1.290689 -3.149792,0 -3.149792,0 -3.149792,0 0,11.066793 0,11.066793 0,11.066793 3.149792,0 3.149792,0 3.149792,0 0,-5.533396 0,-5.533396 0,-5.533396 0,-1.659872 0.922965,-2.76743 2.5931065,-2.76743"/>
    <path id="path992" style="fill:#d6001c;fill-opacity:1;fill-rule:evenodd;stroke:none;stroke-width:1.46502376" d="m 11.253972,56.309148 c 0,-1.311196 0,-1.311196 0,-1.311196 -3.1498339,0 -3.1498339,0 -3.1498339,0 0,11.239663 0,11.239663 0,11.239663 3.1498339,0 3.1498339,0 3.1498339,0 0,-5.619834 0,-5.619834 0,-5.619834 0,-1.686242 1.113413,-2.809913 2.593064,-2.809913 0.542069,0 0.922966,0.1875 1.289245,0.1875 0,-3.184962 0,-3.184962 0,-3.184962 -0.190615,0 -0.747176,0 -1.113414,0 -1.113414,0 -2.212209,0.56257 -2.768895,1.498721"/>
    <path id="path994" style="fill:#d6001c;fill-opacity:1;fill-rule:evenodd;stroke:none;stroke-width:1.46502376" d="m 0.76439594,39.955087 c 0,1.473812 -1.28924412,2.764497 -2.76889524,2.764497 -1.4650331,0 -2.7542357,-1.290685 -2.7542357,-2.764497 0,-1.473816 1.2892026,-2.764502 2.7542357,-2.764502 1.47965112,0 2.76889524,1.290686 2.76889524,2.764502 m -8.83409424,0 c 0,3.501403 2.5784467,5.713592 5.5231309,5.713592 1.2745847,0 2.38799827,-0.369186 3.12051484,-1.106092 0,0.921499 0,0.921499 0,0.921499 3.31092176,0 3.31092176,0 3.31092176,0 0,-11.058002 0,-11.058002 0,-11.058002 -3.31092176,0 -3.31092176,0 -3.31092176,0 0,0.921503 0,0.921503 0,0.921503 -0.73251657,-0.73691 -1.84593014,-1.106096 -3.12051484,-1.106096 -2.9446842,0 -5.5231309,2.395315 -5.5231309,5.713596"/>
    <path id="path996" style="fill:#d6001c;fill-opacity:1;fill-rule:evenodd;stroke:none;stroke-width:1.46502376" d="m 11.927851,34.241491 c -1.289203,0 -2.2121681,0.369186 -2.9593442,1.106096 0,-0.921503 0,-0.921503 0,-0.921503 -3.1497922,0 -3.1497922,0 -3.1497922,0 0,11.066793 0,11.066793 0,11.066793 3.1497922,0 3.1497922,0 3.1497922,0 0,-6.087175 0,-6.087175 0,-6.087175 0,-1.659872 1.1134132,-2.213651 2.2268682,-2.213651 1.098755,0 1.845931,0.738372 1.845931,2.213651 0,6.087175 0,6.087175 0,6.087175 3.149792,0 3.149792,0 3.149792,0 0,-7.008675 0,-7.008675 0,-7.008675 0,-2.582836 -1.670141,-4.242711 -4.263247,-4.242711"/>
    <path id="path998" style="fill:#d6001c;fill-opacity:1;fill-rule:evenodd;stroke:none;stroke-width:1.46502376" d="m -15.805038,16.437056 c 1.098754,0 1.816652,0.55378 2.18289,1.843003 -4.365781,0 -4.365781,0 -4.365781,0 0.190615,-0.921499 0.732517,-1.843003 2.182891,-1.843003 m 0.190614,8.662687 c 1.816653,0 3.442816,-0.552313 4.54157,-1.658405 -1.816612,-2.027592 -1.816612,-2.027592 -1.816612,-2.027592 -0.732516,0.552314 -1.640822,0.9215 -2.549127,0.9215 -1.274585,0 -2.182891,-0.553779 -2.54917,-1.843003 7.456977,0 7.456977,0 7.456977,0 0,-0.369186 0,-0.736906 0,-1.106092 0,-3.318281 -1.992442,-5.713592 -5.274086,-5.713592 -3.266985,0 -5.449875,2.212184 -5.449875,5.713592 0,3.501408 2.358679,5.713592 5.640323,5.713592"/>
    <path id="path1000" style="fill:#d6001c;fill-opacity:1;fill-rule:evenodd;stroke:none;stroke-width:1.46502376" d="m -0.93502258,59.489712 c 0.19061461,-0.93615 0.73247505,-1.8723 2.00705968,-1.8723 1.0841362,0 1.8166528,0.561104 2.1828903,1.8723 z M 1.2478261,54.810427 c -3.2669848,0 -5.4498751,2.245884 -5.4498751,5.801494 0,3.555615 2.1828903,5.801495 5.4498751,5.801495 2.0071013,0 3.457475,-0.561104 4.7320596,-1.684776 C 3.987444,62.670281 3.987444,62.670281 3.987444,62.670281 c -0.7325166,0.561105 -1.6408222,0.93615 -2.5491278,0.93615 -1.27458468,0 -2.18289028,-0.561104 -2.5491693,-1.8723 7.4569763,0 7.4569763,0 7.4569763,0 0,-0.373588 0,-0.748626 0,-1.12221 0,-3.368089 -2.0070597,-5.801494 -5.0982971,-5.801494"/>
    <path id="path1002" style="fill:#d6001c;fill-opacity:1;fill-rule:evenodd;stroke:none;stroke-width:1.46502376" d="M 2.7568377,24.923941 H 6.0531415 V 16.800383 H 8.4557577 V 13.89231 H 6.0531415 V 9.9806988 L 2.7568377,11.785607 V 13.89231 H 1.2478261 v 2.908073 h 1.5090116 z"/>
    <path id="path1004" style="fill:#d6001c;fill-opacity:1;fill-rule:evenodd;stroke:none;stroke-width:1.46502376" d="m -7.1613927,51.294372 -3.3402403,1.804909 v 2.005618 h -1.611545 v 3.009157 h 1.611545 v 8.123559 h 3.3402403 v -8.123559 h 2.4319351 v -3.009157 h -2.4319351 z"/>
    <path id="path1006" style="fill:#d6001c;fill-opacity:1;fill-rule:evenodd;stroke:none;stroke-width:1.46502376" d="m 46.487774,51.294372 -3.105855,1.804909 v 2.005618 H 41.6825 v 3.009157 h 1.699419 v 8.123559 h 3.105855 v -8.123559 h 2.402658 v -3.009157 h -2.402658 z"/>
    <path id="path1008" style="fill:#d6001c;fill-opacity:1;fill-rule:evenodd;stroke:none;stroke-width:1.46502376" d="m 69.57656,24.923941 h 3.105856 v -8.123558 h 2.402616 V 13.89231 H 72.682416 V 9.9806988 L 69.57656,11.785607 v 2.106703 h -1.699418 v 2.908073 h 1.699418 z"/>
    <path id="path1010" style="fill:#d6001c;fill-opacity:1;fill-rule:evenodd;stroke:none;stroke-width:1.46502376" d="m -22.925055,37.205237 c 1.465033,0 2.754236,1.287753 2.754236,2.760103 0,1.472351 -1.289203,2.760104 -2.754236,2.760104 -1.479651,0 -2.578446,-1.287753 -2.578446,-2.760104 0,-1.47235 1.098795,-2.760103 2.578446,-2.760103 m -2.578446,7.358811 c 0.732516,0.736911 2.02176,1.104631 3.120514,1.104631 3.135133,0 5.523131,-2.207791 5.523131,-5.703339 0,-3.312417 -2.387998,-5.703338 -5.523131,-5.703338 -1.098754,0 -2.387998,0.367732 -3.120514,1.103164 0,-5.518746 0,-5.518746 0,-5.518746 -3.310964,1.840071 -3.310964,1.840071 -3.310964,1.840071 0,13.797595 0,13.797595 0,13.797595 3.310964,0 3.310964,0 3.310964,0 z"/>
    <path id="path1012" style="fill:#d6001c;fill-opacity:1;fill-rule:evenodd;stroke:none;stroke-width:1.46502376" d="m 60.932915,63.418906 c -1.479652,0 -2.754236,-1.30973 -2.754236,-2.806985 0,-1.497254 1.274584,-2.806985 2.754236,-2.806985 1.465033,0 2.754235,1.309731 2.754235,2.806985 0,1.497255 -1.289202,2.806985 -2.754235,2.806985 m 0,-8.608479 c -3.310964,0 -5.88941,2.433405 -5.88941,5.801494 0,3.182035 2.387998,5.801495 5.88941,5.801495 3.310963,0 5.88941,-2.433405 5.88941,-5.801495 0,-3.18203 -2.387999,-5.801494 -5.88941,-5.801494"/>
  </g>
</svg>